# xmcd
#
# Track frame offsets:
#	150
#	20007
#	37550
#	58578
#	72236
#	90966
#	103733
#	119864
#	137456
#	155194
#	172768
#	187063
#	205643
#
# Disc length: 2957 seconds
#
# Revision: 1
# Processed by: cddbd v1.5.2PL0 Copyright (c) Steve Scherf et al.
# Submitted via: audiograbber 1.83.01
#
DISCID=ab0b8b0d
DTITLE=8 Ball Aitken - Swamp Blues 2
DYEAR=2019
DGENRE=Swamp Blues
TTITLE0=Tremolo Rain
TTITLE1=Week Man
TTITLE2=Murderers Bar
TTITLE3=Thirty-Nine
TTITLE4=My Sexy Guitar
TTITLE5=Living On The River
TTITLE6=Knocking On Your Door
TTITLE7=The Bed That You Made
TTITLE8=My Darling
TTITLE9=Cherry
TTITLE10=Chocolate, Jack Daniels and LSD
TTITLE11=L.O.V.E.
TTITLE12=Cold Shower
EXTD=
EXTT0=
EXTT1=
EXTT2=
EXTT3=
EXTT4=
EXTT5=
EXTT6=
EXTT7=
EXTT8=
EXTT9=
EXTT10=
EXTT11=
EXTT12=
PLAYORDER=
